<svg style="fill: #caebf2;" xmlns="http://www.w3.org/2000/svg" viewBox="0 0 1300 366.645" ><path d="M670.686 51.808c-.361-.795-.446-1.572-.189-1.727.761-.456 1.64 1.104 1.227 2.18-.324.847-.478.78-1.038-.453zM551 51.072a.588.588 0 0 1 .594-.577.588.588 0 0 1 .578.593.588.588 0 0 1-.594.578.588.588 0 0 1-.578-.594zm125.606 2.894c-.204-.341.342-.578 1.292-.56 1.277.025 1.446.157.758.588-1.135.712-1.61.705-2.05-.027zm-120.093-.147c-.308-.744-.231-1.22.22-1.364.382-.121.7-.594.706-1.05.006-.457.275-.826.597-.822.73.009.748.766.036 1.494-.295.302-.66 1.075-.811 1.717-.27 1.145-.285 1.146-.749.024zm242.154 5.335c.006-.322.387-.58.852-.574.464.006 1.003.277 1.197.602.195.325-.188.583-.852.574-.663-.01-1.202-.28-1.197-.602zm268.364 4.437c-.723-.15-1.311-.517-1.307-.817.012-.856 1.546-.616 2.338.366.394.489.62.851.5.806-.12-.046-.808-.205-1.531-.355zm-163.242-2.4c-.198-.33.05-.595.553-.588 1.029.015 1.175.367.356.858-.302.181-.711.06-.91-.27zm303.939 4.742c-.195-.325-.075-.586.266-.582.341.006.617.272.612.594-.006.322-.124.584-.266.582-.142 0-.418-.269-.612-.594zm-14.357.39c.006-.323 1.458-.567 3.23-.542 1.771.024 3.217.307 3.213.63-.006.322-1.458.565-3.23.541-1.771-.024-3.217-.308-3.213-.63zM623.24 58.505c-.195-.325-.075-.587.266-.582.341.006.617.272.613.594-.006.322-.125.584-.267.582-.142 0-.417-.27-.612-.594zm-79.597-.94c-.496-.51.392-1.903 1.206-1.892.453.006.824-.568.834-1.29l.018-1.302.913 1.342c.501.738.774 1.688.605 2.11-.304.76-3.065 1.557-3.575 1.033zm-21.456 1.587c.012-.948.931-1.15 1.431-.317.174.291-.079.675-.563.853-.534.197-.875-.015-.868-.536zm-9.37-.076c.005-.502.275-.91.597-.905.322.006.583.256.578.559-.006.303-.273.71-.598.905-.325.195-.585-.057-.578-.56zm7.02.613c.006-.502.274-.747.593-.543.32.203.577.618.573.92-.006.304-.27.548-.593.544-.322-.006-.58-.42-.573-.921zm-3.115.496c-.203-.21-.223-.61-.045-.89.383-.6 1.409-.063 1.398.732-.01.63-.804.722-1.353.158zm-34.672-.101c.203-.32.618-.577.92-.573.304.006.548.271.544.593-.006.322-.419.58-.921.573-.502-.006-.747-.274-.543-.593zm-135.583-1.531c0-.142.27-.418.594-.613.325-.194.587-.074.582.267-.006.341-.272.616-.594.612-.322-.006-.584-.124-.582-.266zm38.389 1.198c.228-.574.56-.895.737-.712.178.183-.009.653-.414 1.045-.586.566-.652.498-.323-.333zm-141.702-2.015c.203-.507.626-.919.94-.914.77.009.27 1.335-.61 1.615-.43.136-.557-.133-.33-.7zm1004.582 16.687c0-.142.27-.417.594-.612.325-.195.587-.075.582.266-.006.341-.272.617-.594.612-.322-.006-.584-.124-.582-.266zM136.161 59.8c.006-.556 1.764-.812 2.07-.302.186.311-.204.558-.867.549-.664-.01-1.205-.12-1.203-.247zm1106.032 16.174c-.14-.378.15-.836.64-1.016 1.39-.512 4.314-.343 4.306.248-.006.292-.599.403-1.322.247-.969-.21-.855-.048.431.616l1.745.901-2.773-.154c-1.526-.085-2.888-.464-3.027-.842zM207.713 62.358c-.103-1.501-.067-1.523.705-.436.448.63.688 1.345.533 1.588-.575.902-1.132.383-1.238-1.152zm-93.782 6.024c-2.156-1.077-1.485-1.649 1.877-1.603 1.746.024 3.593-.11 4.105-.299.585-.215.927-.027.92.506-.006.477-1.006 1.131-2.286 1.495-2.674.762-2.901.757-4.616-.1zm1129.936 18.76c-.652-.67.224-1.38 1.678-1.36 1.014.015 1.313.265 1.062.893-.351.88-2.055 1.17-2.74.467zM109.61 73.723a.588.588 0 0 1 .593-.577.588.588 0 0 1 .578.593.588.588 0 0 1-.594.578.588.588 0 0 1-.577-.594zm5.182.594c-.881-.575-.854-.59 1.41-.828.888-.093 1.61.048 1.607.314-.009.736-2.125 1.097-3.017.514zm-2.748.172c.25-.908 1.247-1.214 1.368-.42.05.322-.027.358-.169.077-.143-.28-.516-.153-.83.282-.383.532-.504.552-.369.061zm1130.736 19.49c.006-.34.272-.616.594-.612.322.006.584.124.582.267 0 .142-.27.417-.594.612-.325.194-.587.075-.582-.267zm-3.085 11.346c.865-1.013 2.36-1.14 2.346-.198-.006.356-.402.49-.882.299-.481-.192-.878-.094-.882.218-.006.312-.304.563-.665.558-.454-.006-.429-.278.084-.877zm-.316 7.61c-.178-.485-.07-.88.243-.875.311.006.561.403.555.886-.006.483-.116.877-.242.876-.127 0-.377-.4-.556-.887zM92.875 98.096a.589.589 0 0 1 .594-.577.588.588 0 0 1 .578.593.588.588 0 0 1-.594.578.588.588 0 0 1-.578-.594zm-.366 26.682c.006-.618 1.136-.863 1.463-.317.198.33-.05.595-.553.588-.502-.006-.911-.129-.91-.271zm-6.06 14.834c.008-.649 3.51-1.055 3.873-.45.163.27-.182.506-.765.522a17.61 17.61 0 0 0-2.087.213c-.566.1-1.025-.027-1.022-.285zm-2.343-.065c.006-.312.403-.562.887-.556.483.006.877.116.875.242-.002.127-.4.377-.886.556-.486.178-.88.07-.876-.242zM63.447 176.27c-.5-.836.131-1.04 3.405-1.1 1.572-.03 3.157-.27 3.522-.535.365-.265 1.783-.403 3.151-.307 1.368.096 2.49-.036 2.494-.295.002-.258.535-.6 1.182-.76.764-.188 1.171-.001 1.164.534-.006.453-.275.82-.597.816-.322-.006-.591.4-.598.897-.01.674-.65.9-2.502.88-1.369-.014-4.373.086-6.676.22-2.52.148-4.33.007-4.545-.35zm-4.147-.137c-.407-.679 1.153-1.138 2.01-.591.508.323.36.55-.502.762-.674.167-1.352.09-1.508-.17zm33.322 4.551c-.195-.325-.075-.587.266-.582.341.006.617.272.612.594-.006.322-.124.584-.266.582-.142-.002-.418-.27-.612-.594zm-20.803.628c.006-.502.276-.91.598-.905.322.006.582.256.578.56-.006.302-.274.71-.598.904-.325.195-.585-.057-.578-.559zm-9.968.704c.006-.32 1.128-.589 2.498-.597 1.369-.006 3.083-.072 3.809-.142.726-.071 1.317.09 1.313.36-.002.267-1.127.491-2.496.496-1.37.006-3.084.112-3.81.237-.728.126-1.318-.034-1.314-.354zm12.077 16.34c.006-.568 1.66-.76 2.4-.277.595.388.38.53-.793.52-.885-.006-1.609-.116-1.607-.243zm-19.923.543c.006-.322.124-.584.266-.582.142.002.418.27.612.594.195.325.075.587-.266.582-.341-.006-.617-.272-.612-.594zm-3.514-.048c-.721-.48-.67-.577.3-.564.645.01 1.563.277 2.042.596.721.48.67.577-.3.564-.645-.01-1.563-.277-2.042-.596zm6.697 15.147c.35-1.27 2.101-1.046 2.341.3.123.69-.222.93-1.23.855-1.041-.078-1.326-.375-1.11-1.155zm2.232 17.192c.006-.322.124-.584.266-.582.142.002.417.27.612.594.195.325.075.587-.266.582-.341-.006-.617-.272-.612-.594zm3.04.863c-.625-.699-.455-.827 1.07-.806 1.08.015 1.663.263 1.44.615-.208.324-.598.449-.868.277s-.582-.075-.695.216c-.112.29-.538.155-.947-.302zm20.784 13.09c.012-.861 4.149-1.324 6.172-.69 1.315.412 1.437.552.502.578-.68.02-2.462.184-3.96.368-1.684.207-2.719.11-2.714-.255zm6.04 8.13c-1.032-.46-.981-.522.446-.539.886-.009 1.608.245 1.603.567-.009.687-.46.681-2.05-.027zm3.504 7.858c-.212-.218-.381-.668-.377-1 .006-.368.277-.33.692.096.376.387.545.837.377 1.001-.169.164-.48.12-.692-.097zm1.558 6.244c-.186-.31.204-.557.868-.548 1.414.018 1.552.347.335.795-.475.174-1.017.063-1.203-.247zm3.798 1.835c.015-1.093.174-1.247.713-.693.539.554.535.866-.021 1.405-.554.54-.708.381-.693-.712zm-3.776 2.02c.625-.448 1.347-.58 1.627-.299.277.28.935.36 1.462.18.527-.18.753-.107.503.16-.251.269-1.415.55-2.586.626-1.95.127-2.035.071-1.006-.667zm-6.557 1.983c.219-.343.778-.62 1.242-.613.464.006.848-.252.852-.574.006-.322.732-.55 1.618-.505l1.61.08-1.47.387c-.809.213-1.342.64-1.185.95.157.31-.469.64-1.39.732-1.085.11-1.535-.052-1.277-.457zm-1.8 3.408c-.182-.304.344-.544 1.168-.532.824.012 1.496.228 1.492.481-.009.665-2.266.708-2.66.051zm6.683 10.46c-.9-1.116-.39-1.339 3.174-1.386 1.611-.02 2.532.12 2.046.312-.486.193-1.081.638-1.323.989-.298.434-.438.393-.437-.129 0-.421-.269-.604-.599-.407-.33.198-.452.607-.27.91.18.302.05.546-.291.541-.341-.006-.62-.338-.62-.74.001-.565-.111-.56-.49.02-.397.607-.629.585-1.19-.11zm-5.34.14c.006-.322.124-.584.266-.582.142.002.418.269.612.594.195.325.075.586-.266.582-.341-.006-.617-.272-.612-.594zm873.101 19.584c.006-.322.52-.578 1.145-.57.625.01 1.296.282 1.49.606.201.335-.294.582-1.144.57-.825-.012-1.495-.284-1.49-.606zm-100.33.584c.398-.155 1.189-.154 1.757.002.567.156.241.283-.725.281-.967 0-1.431-.129-1.033-.284zm14.207.597c.006-.312.401-.41.882-.218.48.192.872.453.87.58 0 .126-.398.224-.881.217-.483-.006-.875-.267-.871-.579zm-3.515.03c.006-.268.39-.482.86-.475.468.006.713.23.544.495-.17.266-.557.48-.86.477-.303-.006-.548-.228-.544-.496zm-2.634-.133c-.195-.325.057-.585.56-.578.501.006.908.276.904.598-.006.322-.256.583-.56.578-.302-.006-.71-.273-.904-.598zm167.712 2.483c-.696-.88-.663-.95.277-.582.587.23 1.309.42 1.605.424.296.006.534.271.53.593-.013.934-1.548.657-2.412-.435zm-217.208-2.576c2.117-.646 3.523-.626 3.514.049-.006.322-1.127.544-2.496.493-2.114-.079-2.267-.16-1.018-.542zm-16.406.361c.488-.305 1.281-.535 1.764-.511.58.03.477.21-.3.531-1.62.67-2.544.657-1.464-.018zm-37.92.298c.198-.192.703-.206 1.123-.03.465.193.324.33-.358.348-.618.018-.962-.126-.765-.318zm-15.175.268c.161-.252 1.3-.488 2.531-.524 1.743-.051 1.978.046 1.06.436-1.49.636-3.978.697-3.59.088zm-3.585.01c.566-.14 1.488-.128 2.05.026.561.155.098.27-1.029.254-1.127-.015-1.587-.142-1.021-.282zm-3.221-.028c.404-.157 1.063-.148 1.464.018.4.168.069.297-.736.286-.806-.01-1.133-.149-.728-.306zm-10.238-.106c.198-.192.703-.206 1.123-.031.465.193.324.33-.358.349-.618.018-.962-.126-.765-.318zm-14.224.514c0-.126.415-.381.917-.566.524-.193.758-.092.548.237-.351.552-1.471.804-1.465.33zm-9.21-.25c.198-.192.703-.206 1.123-.03.465.193.324.33-.358.348-.618.018-.962-.126-.765-.318zm-3.83-.082c.4-.155 1.19-.154 1.758.002.568.156.241.282-.725.281-.967 0-1.431-.129-1.032-.284zm328.68 6.647a.588.588 0 0 1 .593-.578.588.588 0 0 1 .577.594.588.588 0 0 1-.593.578.588.588 0 0 1-.578-.594zM95.335 303.146c.006-.322.124-.584.266-.582.143.002.418.27.613.594.194.325.074.587-.267.582-.34-.006-.616-.272-.612-.594zm1.152 1.414c.001-.1.577-.701 1.279-1.337 1.426-1.293 2.269-1.08 2.246.568-.012.84-.427 1.08-1.771 1.024-.966-.04-1.755-.155-1.754-.255zm345.083 6.493c.197-.192.703-.205 1.123-.03.465.193.324.33-.359.349-.617.018-.961-.127-.764-.319zm-50.366-.69c.197-.192.703-.206 1.123-.031.465.193.324.33-.358.349-.618.018-.962-.126-.765-.318zm-54.918 2.08c-.5-.515 1.971-1.978 2.63-1.558.324.207.454.587.29.846-.393.616-2.511 1.132-2.92.711zm130.263 2.236c.006-.322.125-.584.267-.583.142.002.417.27.612.595.195.324.075.586-.266.582-.341-.006-.617-.272-.613-.594zm-379.534-2.861c1.158-.725 1.933-.715 1.465.021-.204.32-.816.57-1.36.558-.854-.018-.868-.1-.105-.578zM1063.071 63.95c.203-.32-.041-.587-.543-.594-.502-.006-.917.252-.921.574-.006.322.24.589.543.593.303.006.718-.254.921-.573zm54.749 1.434c.006-.269-.389-.494-.872-.5-.483-.006-.881.207-.885.476-.006.268.389.493.872.5.483.006.881-.208.885-.476zm50.05 2.345c-.194-.324-.47-.592-.612-.594-.142 0-.262.26-.266.582-.006.322.271.59.612.595.341.006.461-.258.266-.583zM868.9 63.303c0-.142-.407-.264-.91-.27-.502-.007-.75.257-.553.587.327.545 1.454.301 1.463-.317zm309.793 5.419c0-.142-.26-.262-.582-.266-.322-.006-.59.27-.594.612-.006.34.258.46.582.266.325-.195.592-.47.594-.612zm-1.925.11c-.125-.38-1.21-.704-2.414-.72-1.504-.019-2.448-.397-3.021-1.203-.806-1.133-.829-1.124-.69.284.112 1.135-.094 1.411-.937 1.255-.595-.11-.93.053-.744.363.513.857 8.085.878 7.806.021zm-9.835.203c-.021-.242-.22-.929-.446-1.526-.368-.975-.483-.931-1.123.424-.637 1.348-.59 1.511.445 1.526.637.009 1.143-.182 1.124-.424zm-110.492-.49c.387-1.398-.178-1.882-1.353-1.16-.692.424-.702.53-.054.546.647.018.66.188.062.888-.603.707-.577.871.14.881.486.006 1.028-.513 1.205-1.154zm176.063 5.983c.006-.292-.522-.4-1.168-.24-.647.16-1.177.39-1.179.514 0 .124.524.232 1.168.24.644.01 1.175-.222 1.179-.514zm-948.189-11.59c.006-.444-.25-.975-.57-1.179-.33-.21-.589.29-.6 1.164-.013.873.233 1.38.569 1.179.325-.195.595-.718.601-1.163zm-131.603 7.276c.468-.735-.307-.746-1.464-.018-.764.479-.75.559.104.578.545.012 1.157-.239 1.36-.558zm1078.269 29.977c.006-.34-.258-.46-.583-.266-.324.195-.592.47-.594.612 0 .142.26.262.582.266.322.006.59-.27.595-.612zm-6.46 1.118a.586.586 0 1 0-1.172-.015.586.586 0 0 0 1.173.015zm-4 .716c-.42-.174-.925-.16-1.123.031-.197.192.147.335.765.318.682-.018.823-.155.358-.348zm4.538 2.806c.006-.322-.403-.591-.905-.598-.502-.006-.754.253-.559.578.195.325.602.594.905.598.303.006.555-.256.56-.578zm-3.514-.03c.006-.312-.39-.421-.875-.242-.486.178-.885.428-.886.555 0 .127.392.235.875.242.483.006.882-.243.886-.555zm-.779 11.089c-.459-.265-2.15-.557-3.759-.65-3.683-.21-4.39-.145-4.392.403-.006.242 2.02.505 4.492.584 2.525.082 4.128-.066 3.66-.337zm-9.176 1.102c.254-.021.131-.403-.274-.85-.62-.682-.852-.663-1.47.127-.58.74-.736.763-.742.107-.006-.457-.167-.674-.363-.483-.627.61.3 1.507 1.36 1.319.564-.1 1.234-.2 1.489-.22zM127.094 130.967c-.42-.175-.926-.161-1.123.031-.197.192.147.335.765.318.682-.018.823-.155.358-.349zm-1.871.34c.006-.341-.258-.46-.583-.266-.324.194-.592.47-.594.612-.002.142.26.262.582.266.323.006.59-.271.595-.612zm1105.26 23.032c.512-.189.935-.578.939-.866.012-.838-1.54-.624-2.348.324-.786.92-.215 1.14 1.41.542zM96.393 140.577c.002-.142-.26-.262-.582-.266-.322-.006-.59.27-.594.612-.006.34.257.46.582.266.325-.195.592-.47.594-.612zm12.415 13.488c-.673-.692-2.048-.587-2.058.158-.006.488.43.663 1.188.476.66-.163 1.051-.448.87-.634zm11.352 4.738c.006-.322-.403-.591-.905-.598-.503-.006-.754.253-.56.578.195.325.602.594.905.598.304.006.555-.256.56-.578zm11.079 3.666c-1.137-.757-1.912-.767-1.464-.018.194.325.8.593 1.344.595.854.006.87-.075.12-.575zm-4.228-.534c.366-1.049-.847-.844-1.27.215-.227.567-.1.837.33.7.385-.122.808-.534.94-.915zm-3.38.048c.015-1.047-2.001-1.04-2.898.012-.59.692-.41.826 1.089.804 1.092-.018 1.802-.336 1.809-.815zm-4.564-.384c-.37-.38-.871-.5-1.112-.266-.24.234-.061.666.4.96 1.084.69 1.585.204.712-.693zm-8.37 3.776c.006-.502-.257-.751-.587-.554-.33.198-.452.607-.271.91.49.82.844.672.858-.356zm1110.35 18.444c.007-.342-.257-.461-.582-.267-.324.195-.592.47-.594.612 0 .142.26.262.582.267.323.006.59-.271.595-.612zM103.278 172.58c.005-.457-.384-.835-.868-.842-.483-.006-1.068-.278-1.3-.604-.262-.366-.43-.312-.442.14-.009.403-.48.738-1.044.745-.647.006-.382.317.72.838 2.038.964 2.918.88 2.933-.277zm1.229.224c-.192-.197-.335.147-.318.765.02.682.155.823.349.358.175-.42.161-.926-.031-1.123zm4.586 2.833c.777-.321.88-.502.3-.531-.483-.024-1.277.205-1.764.511-1.08.677-.155.69 1.464.021zm-2.635-.036c.009-.644-.085-1.173-.209-1.174-.123-.002-.37.522-.547 1.164-.177.641-.083 1.17.209 1.174.292.006.538-.52.547-1.164zm-4.845 1.914c2.369-.328 3.569-1.048 2.897-1.738-.165-.17-1.812-.018-3.66.34-1.847.357-4.244.638-5.327.623-1.082-.015-1.97.188-1.974.451-.015 1.045 2.205 1.134 8.064.324zm-1.946 2.093c-.195-.325-.47-.592-.613-.594-.142-.002-.262.26-.266.582-.006.322.27.59.612.594.341.006.461-.257.267-.582zm1.97 4.806c-.974-.34-2.442.397-2.06 1.034.221.37.772.327 1.508-.12.638-.385.887-.797.552-.913zm-15.814.862c.006-.322-.387-.591-.87-.598-.483-.006-.882.252-.887.574-.006.322.388.591.87.598.484.006.883-.252.887-.574zm12.733.545c.703-1.707-1.074-2.022-4.664-.827-3.498 1.165-3.29 1.543.748 1.363 2.07-.092 3.833-.334 3.916-.536zm-.22 3.762c.192-.3-.167-.514-.797-.475-.63.04-1.018.281-.864.539.38.635 1.237.602 1.661-.064zm-.904 6.982c.296.006.54-.22.545-.497.002-.278-.654-.388-1.462-.245-.807.143-1.471.52-1.475.84-.006.319.41.426.923.237.512-.188 1.173-.34 1.469-.335zm-5.318-.108c.006-.341-.258-.46-.583-.266-.324.194-.592.47-.594.612-.002.142.26.262.582.266.323.006.59-.27.595-.612zm-3.518.245c.002-.142-.26-.262-.582-.267-.323-.006-.59.271-.595.613-.006.34.258.46.583.266.324-.195.592-.47.594-.612zm11.058 5.165c-1.125-.75-1.747-.758-1.757-.024-.006.322.585.59 1.31.595 1.066.006 1.151-.102.447-.57zm-2.209 6.389c.287-.26-.945-.491-2.738-.516-1.906-.027-3.518.259-3.881.685-.492.576.082.684 2.738.515 1.848-.117 3.595-.425 3.881-.684zm.877 5.308c.006-.322-.189-.609-.43-.637-.241-.027-.95-.153-1.574-.279-1.758-.353-2.554.46-.919.94 2.163.633 2.915.627 2.923-.022zm-8.197-.21c.002-.269-.389-.493-.872-.5-.483-.006-.882.207-.885.476-.002.268.388.493.871.5.484.006.882-.208.886-.476zm-2.637.061c-.195-.325-.75-.596-1.232-.602-.484-.006-.72.253-.525.578.195.325.75.596 1.232.603.483.006.72-.254.525-.579zm-16.14 2.347c.001-.124-.804-.236-1.79-.25-.985-.014-1.653.206-1.484.487.285.476 3.266.26 3.273-.237zm34.128 15.881c.147-.142-.4-.396-1.215-.563-.885-.182-1.77.034-2.198.536-.609.713-.425.799 1.215.563 1.063-.152 2.052-.394 2.198-.536zm-5.641-.227c.006-.502-.258-.751-.588-.553-.33.198-.452.607-.27.91.49.818.844.672.858-.357zm-7.626.809a.586.586 0 1 0-1.173-.015.586.586 0 0 0 1.173.015zm-2.953 1.735c.006-.312.467-.416 1.029-.231.885.292.874.214-.087-.593-.707-.593-1.656-.805-2.628-.587-2.017.453-2.246.71-1.225 1.375 1.123.732 2.902.754 2.912.036zm7.07 3.526c1.44-.886-5.69-.936-9.46-.066-1.587.365-.831.483 3.303.515 2.947.02 5.718-.18 6.156-.45zm-12.225.68c-.159-.431-.48-.787-.714-.79-.234-.002-.43.345-.436.775-.006.429.315.785.714.79.399.006.595-.343.436-.775zm6.029.632c-.192-.197-.335.147-.318.765.02.682.155.823.349.358.174-.42.16-.926-.031-1.123zm15.29 8.907c1.04-.073.369-.817-.978-1.083-3.281-.65-5.958-.15-4.426.825.569.362 2.544.456 5.404.258zm-3.618 11.136c.002-.253-.501-.467-1.122-.476-.62-.006-1.003.194-.85.449.153.255.658.47 1.122.475.464.006.847-.195.85-.448zm6.33 8.287c.002-.253-.521-.467-1.165-.476-.644-.009-1.174.191-1.178.444-.002.253.521.468 1.165.476.644.01 1.174-.19 1.178-.444zm-3.919 2.327c-1.333-1.003-1.957-.973-1.972.096-.006.577.495.837 1.486.769 1.367-.094 1.41-.17.486-.866zm6.484 2.855c-.195-.325-.47-.592-.612-.594-.143-.002-.262.26-.267.582-.006.322.271.59.612.594.341.006.461-.257.267-.582zm-6.536.789c-.178-.486-.56-.886-.848-.89-.287-.006-.528.388-.535.87a.872.872 0 0 0 .848.891c.524.006.733-.333.535-.871zm1112.605 17.489c-.42-.175-.926-.162-1.123.03-.198.193.147.336.764.319.683-.021.823-.156.359-.35zm-1.867.018c0-.127-.722-.236-1.608-.244-1.172-.009-1.388.133-.792.521.739.482 2.392.291 2.4-.277zm-4.08 4.243c-.69-.707-2.64-.122-2.175.653.178.297.87.405 1.537.24.809-.2 1.021-.498.637-.893zM115.548 281.456c.006-.483-.243-.882-.555-.886-.312-.006-.42.39-.242.875.179.486.429.884.555.886.127.002.236-.392.242-.875zm-4.679-.516c.59-.215.446-.344-.434-.387-.885-.043-1.318.273-1.322.961-.002.632.163.78.434.387.242-.351.837-.784 1.322-.961zm910.392 23.4c.727-.184 1.325-.568 1.33-.852.005-.599-2.01-.694-4.002-.19-1.024.259-1.176.475-.597.853.921.602 1.506.636 3.269.189zm-894.619-12.294c-.42-.175-.925-.162-1.123.03-.197.193.147.336.765.319.682-.021.823-.156.358-.35zm900.62 12.432l1.477-.839-1.76.222c-.969.122-2.106.239-2.528.26-.95.046-.328 1.223.638 1.207.384-.006 1.362-.389 2.174-.85zm-15.123.293c-.42-.175-.926-.161-1.123.031-.197.192.147.335.764.318.683-.02.823-.155.359-.349zm-840.232-11.119c.203-.32-.173-.588-.836-.597-.663-.009-1.21.247-1.214.57-.006.321.372.59.836.596.464.006 1.01-.25 1.214-.569zm-14.34-.761c.001-.236-.785-.462-1.751-.503-1.75-.073-2.426.691-1.041 1.178.936.33 2.784-.118 2.791-.675zm837.564 13.404c-.42-.175-.926-.161-1.123.031-.198.192.147.335.764.318.683-.018.823-.155.359-.349zM164.57 294.821c.002-.269-.389-.494-.872-.5-.483-.006-.881.207-.885.476-.002.268.389.493.872.5.483.006.881-.208.885-.476zm-16.395-.45c.006-.574-.265-1.048-.606-1.052-.341-.006-.461.257-.266.582.605 1.01-1.597.619-2.33-.415-.764-1.074-2.05-.65-2.067.682-.015 1.036.956 1.13 1.345.13.194-.497.413-.404.69.291.548 1.38 3.214 1.2 3.234-.218zM942.3 306.522c.006-.34-.257-.46-.582-.266-.325.195-.592.47-.594.612 0 .142.26.262.582.267.322.006.59-.271.594-.613zm-99.86-1.344c-.197-.33-.606-.452-.909-.27-.819.49-.672.844.356.858.502.006.752-.258.554-.588zm-6.036.113c-.42-.175-.926-.161-1.123.03-.197.193.147.336.765.319.682-.018.823-.156.358-.349zm-4.206-.254c.006-.355-.649-.45-1.608-.233-2.307.52-2.388.775-.255.804 1.02.015 1.858-.243 1.863-.571zm-671.493-9.579c.295.054.665-.271.822-.723.201-.577-.015-.711-.725-.45-.556.205-1.245.37-1.531.366-.286-.006-.365.412-.176.925.193.524.503.681.709.359.2-.316.607-.53.901-.477zm-44.282-.744c.174-.506.02-.654-.414-.395-.381.229-1.072.092-1.536-.304-.695-.592-.846-.493-.86.565-.016.984.278 1.244 1.256 1.114.7-.094 1.4-.535 1.554-.98zm723.97 10.676c0-.127-.721-.236-1.607-.243-1.172-.01-1.388.132-.792.52.739.483 2.392.292 2.4-.277zm-728.222-9.969c1.052-.833 1.058-.883.072-.584-.593.179-1.32.322-1.616.318-.295-.006-.54.256-.545.578-.012.848.772.731 2.089-.312zm43.636 1.031c.034-.553.178-.668.335-.267.39.997 1.955.285 1.585-.72-.384-1.043-4.28-.924-4.296.13-.006.403-.406.727-.89.72-.483-.006-.875-.267-.87-.579.006-.312-.39-.42-.876-.242-1.926.71-.828 1.689 2.026 1.807 2.351.098 2.939-.07 2.986-.848zm-23.125.039c.292-.17 1.269-.295 2.17-.279.93.018 1.995-.44 2.463-1.057.974-1.285.285-1.719-1.37-.862-.645.334-2.179.612-3.408.618-2.595.012-3.943.494-4.15 1.484-.145.695 3.137.768 4.295.096zm-5.49.162c.529-.515.353-.697-.74-.764-.789-.05-1.699-.038-2.022.024-1.076.208-3.507.473-4.58.5-.584.014-.899.295-.7.625.478.8 7.153.479 8.042-.386zm-8.927.33c.006-.342-.257-.461-.582-.267-.325.195-.592.47-.594.612-.002.142.26.262.582.267.322.006.59-.271.594-.612zm-2.444.656c1.364-.839-1.721-1.087-4.004-.323l-2.06.69 2.636.06c1.45.033 2.992-.16 3.428-.427zm-8.114.405c.006-.322-.271-.59-.612-.594-.341-.006-.461.257-.267.582.195.325.47.592.613.594.142.002.261-.26.266-.582zm27.81.967c-.194-.325-.47-.592-.612-.594-.142-.002-.262.26-.266.582-.006.322.271.59.612.594.341.006.461-.257.267-.582zm-3.972 1.334c.728-.185 1.326-.577 1.33-.873.01-.774-3.105-.29-3.39.526-.267.767.135.834 2.06.347zm374.048 7.84c-.195-.325-.734-.596-1.198-.602-.464-.006-.848.252-.852.574-.006.322.535.593 1.198.602.663.009 1.046-.25.852-.574zm-18.448-.253c.006-.322-.271-.59-.613-.594-.34-.006-.46.257-.266.582.195.325.47.592.612.594.143.002.262-.26.267-.582zm-93.127-.691c.006-.322-.387-.591-.87-.598-.483-.006-.882.252-.887.574-.006.322.387.59.87.598.484.006.883-.252.887-.574zm-20.205-.277c-.194-.325-.932-.572-1.638-.55-1.195.038-1.183.075.174.53l1.638.55c.099.033.02-.205-.174-.53zm-6.442-.088c.216-.34-.376-.591-1.422-.606-.985-.015-1.795.24-1.8.561-.005.323.636.595 1.422.606.787.009 1.597-.242 1.8-.561zm-27.232-.442c.006-.36-.506-.527-1.138-.37-.631.155-1.241-.013-1.356-.372-.148-.467-.894-.438-2.603.1-1.317.414-2.666.581-2.997.37a.71.71 0 0 0-.978.206c-.243.381 1.295.613 4.343.655 3.085.042 4.723-.162 4.73-.59zm-199.415-2.666c.203-.319-.04-.586-.543-.593-.502-.006-.917.251-.921.573-.006.323.24.59.543.594.303.006.718-.254.921-.574zm309.509 4.795c.006-.341-.257-.461-.582-.267-.325.195-.592.47-.594.613 0 .142.26.262.582.266.322.006.59-.27.594-.612zm-102.305-2.013c-.265-.272-1.124-.336-1.91-.143-1.313.325-1.336.387-.293.775 1.358.505 2.883.067 2.203-.632zm-209.265-2.003c.012-.813-.136-.84-1.022-.18-.57.424-1.147.844-1.282.933-.136.09.324.17 1.022.18.78.009 1.274-.349 1.282-.933zm195.59 3.987c0-.126-.39-.387-.871-.579-.48-.192-.877-.094-.882.218-.006.312.388.573.871.58.483.005.88-.092.882-.219zm-46.278.182c.006-.322-.387-.591-.87-.598-.484-.006-.882.252-.887.574-.006.322.387.59.87.597.484.006.883-.251.887-.573zm-2.338-.36c0-.142-.26-.262-.582-.266-.322-.006-.59.27-.594.612-.006.341.257.461.582.266.325-.194.592-.47.594-.612zm-155.2-1.898c.001-.268-.39-.493-.872-.5-.484-.006-.882.208-.886.476-.002.269.389.494.872.5.483.006.882-.207.885-.476zm-2.93.058c.009-.734-.612-.742-1.757-.024-.717.45-.634.56.431.583.725.015 1.321-.237 1.326-.56zm-4.4.525c.203-.32-.173-.588-.837-.597-.663-.009-1.209.247-1.213.57-.006.321.371.59.835.596.465.006 1.01-.25 1.214-.569zm-2.642.424c.006-.62-7.375-.405-8.031.233-.233.226 1.478.39 3.8.363 2.323-.027 4.226-.295 4.23-.596zm-10.293.753c1-.552.866-.64-1.016-.665-2.017-.027-2.632.36-1.848 1.167.438.45 1.467.27 2.864-.502zm-3.78.317c.006-.341-.258-.461-.582-.267-.325.195-.593.47-.595.613-.002.142.26.262.582.266.323.006.59-.27.595-.612zm201.258 3.082c.656-1.367.599-1.452-.999-1.474-1.45-.018-1.68.19-1.594 1.443.132 1.908 1.682 1.926 2.593.03zm-3.401-.703c-.224-1.254-2.943-1.925-8.368-2.065-1.932-.05-3.881-.331-4.331-.625-.45-.293-1.174-.403-1.608-.243-1.073.395-1.023 1.902.066 2.007.482.047 1.074.137 1.315.2 1.378.363 8.326 1.217 9.941 1.224 1.348.006 1.9.276 1.891.927-.009.665.167.745.637.288.357-.348.563-1.119.457-1.713zm-161.27-.672c1.043-.431.994-.494-.432-.55-.886-.035-1.614.2-1.618.522-.01.688.44.694 2.05.027zm145.51 3.753a.586.586 0 1 0-1.173-.015.586.586 0 0 0 1.172.015zm-60.339.344c.006-.322-.585-.59-1.31-.595-1.065-.006-1.15.102-.447.57 1.126.75 1.747.759 1.757.025zm-2.364 1.567c-2.09-.356-3.468-.759-3.063-.895.404-.137.739-.49.743-.785.012-.817-1.583-.663-1.922.186-.194.485-1.289.693-3.146.597a629.37 629.37 0 0 0-4.786-.229c-1.065-.044-1.795-.304-1.62-.577.379-.596-9.461-.56-10.932.041-.589.24-1.027.168-1.023-.169.006-.565-1.8-.823-6.605-.942-1.223-.03-3.297.283-4.609.696-2.152.678-2.44.65-2.947-.288-.501-.925-1.18-1.003-6.227-.718-3.116.175-6.108.545-6.65.821-.653.333-1.07.256-1.238-.23-.202-.58-.512-.582-1.512-.011-.693.397-1.254.465-1.25.153.006-.312-.717-.59-1.602-.619-8.659-.275-16.83-.759-18.488-1.093-1.439-.29-2.287-.154-2.93.473-1.006.979-2.444 1.197-1.862.283.204-.32.091-.584-.25-.589-.34-.006-.628.32-.639.723-.015.558-.123.564-.454.027-.468-.758-1.69-.757-2.944.002-.428.26-.934.311-1.125.115-.19-.196-.039-.352.337-.347.376.006.69-.439.697-.986.009-.775-.145-.842-.699-.303-.84.817-1.872.921-1.374.139a.649.649 0 0 0-.206-.891c-.302-.193-.73-.067-.951.28-.22.346-.768.483-1.216.304-.449-.18-.819-.079-.823.223-.006.302-.466.383-1.027.181-.883-.317-.873-.248.075.511.97.779.987.918.148 1.227-.52.192-1.102.09-1.291-.226-.19-.316-.548-.452-.797-.303-.844.506-14.662.112-15.865-.453-.81-.38-12.647-.035-13.85.403-1.282.468-1.394.358-1.408-1.382-.012-1.564-.1-1.688-.513-.724-.442 1.035-.54 1.054-.885.178-.296-.752-.864-.916-2.397-.688-3.027.448-2.406-.21 1.223-1.298 1.772-.53 3.081-1.2 2.909-1.488-.173-.288-.562-.375-.864-.194-.302.18-.546.079-.542-.227.006-.307.721-.726 1.593-.932 1.117-.264 1.362-.517.83-.856-1.009-.643.322-3.181 1.434-2.737.425.17.946.14 1.158-.066.211-.206 1.492-.394 2.845-.417 4.47-.076 5.098-.179 5.107-.833.006-.357-.389-.502-.874-.323-.517.19-.88-.002-.873-.467.012-.897-1.856-1.562-3.544-1.261-.69.123-1.123-.126-1.116-.644.006-.464-.252-.848-.574-.853-.322-.006-.59.388-.597.87-.015 1.145-.964 1.122-1.389-.033-.238-.647-.77-.793-1.909-.524-1.309.31-1.513.209-1.195-.588.211-.528.195-.984-.036-1.011-.231-.027-.91-.15-1.508-.272-.692-.14-1.201.189-1.399.904-.173.626-.817 1.118-1.453 1.11-.876-.012-1.052-.288-.755-1.182.397-1.192-.494-1.652-1.164-.6-.244.382-.792.35-1.598-.096-1.007-.557-1.377-.484-2.065.409-.814 1.056-.833 1.054-.632-.067.128-.71-.13-1.176-.67-1.21-.483-.03-1.798-.24-2.922-.467-1.125-.227-3.294-.59-4.822-.805-4.244-.6-3.3-1.207 1.773-1.137 6.954.095 15.154-.507 16.519-1.214.674-.349 1.223-.44 1.22-.204-.002.237.315.119.706-.262.392-.382 1.187-.687 1.767-.68.707.01 1.06-.425 1.073-1.322.015-1.064-.29-1.328-1.498-1.291-.833.024-1.757.416-2.053.87-.396.606-.537.626-.536.073.001-.413-.588-.998-1.31-1.299-1.24-.518-1.22-.548.373-.562 1.383-.012 1.562-.163 1.006-.852-.54-.67-.434-.912.525-1.203.662-.2 1.413-.229 1.67-.065.259.164.855.062 1.327-.228.625-.383.34-.536-1.045-.561-3.021-.056-2.191-1.203.895-1.238 1.531-.018 2.928-.015 3.105.002.178.018.644-.464 1.037-1.074.764-1.188.597-1.195-10.564-.468-1.868.122-2.782-.045-2.775-.507.006-.379.47-.713 1.035-.744l3.224-.176c1.21-.067 2.201-.342 2.205-.611.002-.27-1.324-.416-2.95-.326-2.456.136-3.059-.031-3.552-.985-.47-.907-1.077-1.11-2.89-.962-1.262.103-2.292-.024-2.288-.282.009-.749 2.642-1.506 5.633-1.62 2.094-.079 2.83-.359 3.051-1.158.16-.58.54-1.05.843-1.046.304.006.395.255.202.558-.39.612 1.973.332 2.554-.302.2-.22-.098-.24-.665-.046-.757.26-1.025.048-1.014-.8.01-.634.308-1.148.664-1.144.357.006.502-.388.324-.874-.18-.486-.048-.88.29-.875.831.012.33-1.44-.534-1.544a79.296 79.296 0 0 0-1.56-.168c-1.232-.12-1.086-1.06.161-1.038 2.608.047 4.25-.185 4.255-.601.002-.25-1.475-.453-3.285-.45-1.81.002-3.586-.278-3.945-.624-.79-.761-4.456-1.011-4.466-.305-.002.276-.468.491-1.032.479-.802-.018-.85-.13-.219-.518.68-.418.682-.543.01-.804-.48-.187.08-.675 1.41-1.23 2.222-.926 2.561-1.865 1.392-3.847-.442-.75-.38-.767.406-.113.624.52 1.055.574 1.316.165.213-.335.636-.606.939-.601.817.012.646 1.62-.208 1.952-.477.185-.407.306.198.344.513.033 1.417-.461 2.01-1.097.61-.656.782-1.161.399-1.167-.372-.006-.672-.34-.666-.745.006-.516.819-.66 2.717-.484 1.88.176 2.587.053 2.314-.403-.216-.36-1.695-.674-3.287-.696-1.646-.02-2.89-.307-2.885-.66.006-.34-.204-.493-.463-.338-.26.156-.829.055-1.266-.224-.437-.278-1.372-.296-2.077-.039-1.154.421-1.25.311-.962-1.09.176-.856.426-1.226.555-.822.277.87 3.647 1.05 3.659.197.006-.322.403-.58.886-.573.483.006.882-.252.887-.574.006-.322.535-.578 1.18-.57.643.01 1.174-.213 1.177-.493.006-.28-.849-.53-1.896-.555-3.148-.074-3.451-.154-3.04-.8.218-.342.763-.474 1.21-.295.471.188.82-.038.828-.535.006-.473.277-.856.602-.852.364.006.335-.414-.077-1.093-.38-.627-1.106-.994-1.684-.851-1.94.479-1.775-.984.171-1.517 1.477-.404 1.622-.545.615-.6-1-.053-1.312-.422-1.297-1.534.012-.806.284-1.46.606-1.456a.588.588 0 0 1 .578.593c-.006.322.387.591.87.598 1.332.018 1.075-1.733-.268-1.826-3.708-.257-4.824-.115-4.417.565.187.31.794.412 1.35.225.843-.283.882-.205.238.468-.589.615-2.795.791-9.263.738-7.789-.063-9.973-.402-8.457-1.31.314-.189 1.518-.365 2.675-.393 4.481-.107 2.571-1.607-2.253-1.77-1.483-.05-2.693-.337-2.688-.637.006-.3-.259-.387-.584-.192-.324.195-.585-.027-.579-.49.01-.627 1.18-.934 4.556-1.193 4.537-.348 7.211-1.358 7.195-2.717-.006-.395-.403-.212-.885.406-.528.68-.871.822-.865.36.006-.605-1.35-.716-6.436-.527-4.17.155-6.444.031-6.438-.352.006-.326-.484-.443-1.086-.261-.605.183-1.388-.036-1.755-.49-.543-.673-.172-.881 2.065-1.157 1.5-.185 4.338-.322 6.306-.305 4.52.038 20.108-1.738 22.065-2.515.93-.369 1.118-.603.511-.634-.529-.027-1.115-.468-1.303-.978-.31-.843-.425-.844-1.276-.018-1.079 1.05-2.895 1.228-2.253.22.306-.48-.05-.536-1.28-.2-1.895.516-4.157.494-11.07-.107-2.574-.224-5.185-.418-5.802-.432-.618-.015-.972-.171-.788-.35.184-.18 3.788-.328 8.01-.33 4.22-.002 7.677-.17 7.68-.375.009-.692 2.356-.964 2.366-.274.006.373.418.156.919-.481.844-1.076.95-1.086 1.466-.145.412.749 1.013.93 2.3.69 1.213-.225 1.74-.093 1.733.433-.006.416.13.62.3.454.618-.601-.394-2.155-1.208-1.856-.46.17-.83.024-.826-.323.006-.346-.431-.467-.971-.269-.698.257-.843.147-.505-.384.278-.437.15-.95-.311-1.244-.47-.3-.959-.227-1.217.178-.238.374-.634.472-.88.218-.714-.732.74-1.29 3.002-1.153 1.146.07 1.94-.112 1.765-.404-.174-.29-1.224-.542-2.332-.557-1.109-.015-2.012-.266-2.008-.558.006-.292.503-.394 1.108-.227.606.167 1.273.034 1.484-.296.625-.98-3.196-1.743-6.67-1.331-1.814.215-3.518.141-3.897-.169-.42-.344-.818-.321-1.061.06-.26.409-.741.416-1.454.021-.647-.357-4.794-.51-10.547-.387-8.654.184-9.583.106-10.655-.892-.646-.6-1.325-.963-1.508-.804-.183.159-.438-.041-.566-.444-.246-.774 2.573-2.087 3.38-1.574.752.48 6.64.601 7.703.159.6-.25.86-.834.685-1.54-.213-.864.021-1.133.98-1.12.693.009 1.873-.373 2.623-.85.982-.624 2.53-.795 5.54-.613 2.297.139 4.47.076 4.83-.139 1.234-.74-.817-1.008-5.323-.698-2.838.196-4.893.062-5.74-.376-1.32-.68-1.319-.68.33-.977.907-.163 2.372-.144 3.255.043 1.163.246 1.61.103 1.618-.515.012-.901.26-.99 3.532-1.264 3.9-.328 7.042-.963 7.049-1.426.006-.506 3.183-1.383 5.733-1.583 1.29-.1.798-1.081-.696-1.388-.793-.163-1.306-.07-1.14.209.167.278-.883.489-2.332.469-1.45-.021-2.796.215-2.992.522-.226.355-.927.333-1.922-.061-.903-.358-4.24-.536-7.881-.42-8.675.275-8.444-.682.45-1.865 3.518-.468 4.532-1.004 4.306-2.275-.147-.82-1.39-.992-8.892-1.23-4.797-.153-8.855-.415-9.018-.583-.746-.767.962-.915 9.774-.845 7.24.057 9.598-.111 10.119-.721.548-.644.356-.806-1.003-.844-2.657-.076-10.709-.791-14.552-1.292l-3.508-.458 3.231-.724c1.778-.398 6.009-.786 9.403-.862 3.393-.075 7.8-.242 9.79-.37 2.046-.13 3.771.022 3.966.345.406.677 1.449.787 1.445.152-.001-.242-.23-.808-.506-1.257-.53-.864-.46-.861-18.88-.692-8.575.078-11.328-.278-10.25-1.326.475-.463 3.75-.72 10.957-.864 5.354-.107 5.843-.233 7.22-1.865.6-.71 1.273-1.243 1.495-1.183.223.06 1.989-.088 3.925-.33 1.936-.243 4.444-.458 5.571-.478 1.403-.024 2.055-.315 2.063-.916a.877.877 0 0 0-.866-.888c-.484-.006-1.413-.544-2.065-1.2-1.496-1.5-2.58-1.762-2.596-.624-.006.582-.594.87-1.735.855-.947-.012-1.89.24-2.097.564-.224.352-.735.38-1.27.07-.493-.284-1.99-.33-3.328-.103-1.338.228-3.7.527-5.25.664-2.384.212-2.788.103-2.62-.706.135-.656.931-1.001 2.537-1.101 1.286-.08 2.44-.429 2.565-.775.149-.415.376-.379.668.107.327.546.883.59 2.145.17.936-.312 3.075-.417 4.752-.232 2.504.275 3.051.17 3.061-.584.006-.505-.248-1.084-.568-1.288-.319-.203-.59-.024-.6.397-.015.594-.133.581-.526-.058-.278-.454-.93-.669-1.449-.478-.518.19-.938.076-.934-.255.006-.339-.314-.403-.73-.147-.406.25-1.661.467-2.789.482-1.128.015-2.447.132-2.932.262-.564.15-.877-.171-.867-.888.01-.781.505-1.18 1.629-1.316 1.032-.123 1.613.078 1.612.56 0 .556.138.538.535-.07.53-.813 5.386-.957 6.582-.195.297.19.894.057 1.327-.292.433-.35 2.153-.713 3.82-.807 1.668-.094 3.116-.267 3.218-.384.103-.118.357-1.266.565-2.552.347-2.133.313-2.22-.387-.985l-.768 1.353-.94-1.377-.942-1.376.106 1.464c.081 1.118-.205 1.504-1.211 1.635-1.045.135-1.234-.04-.912-.845.328-.821.19-.933-.727-.584-1.442.55-3.814 1.018-4.948.978-1.079-.038-9.234.805-10.86 1.123-.65.127-1.908-.081-2.795-.463-1.605-.69-1.607-.697-.35-1.452.694-.417 1.084-.478.865-.135-.218.343-.118.628.223.633.341.006.625-.358.631-.806.01-.776 2.669-1.486 5.744-1.534.896-.015 1.283-.335 1.185-.986-.19-1.275 2.384-1.255 6.256.048 2.414.812 3.128.85 4.36.233.973-.488 1.702-.541 2.153-.157.765.653 2.592.175 2.603-.682.006-.306.251-.402.549-.213.297.19.72.061.941-.285.221-.347.802-.47 1.29-.275.49.196 1.255.06 1.703-.301.447-.361.81-.46.807-.22-.002.24.437.08.979-.355.669-.537 1.052-.582 1.194-.14.364 1.131 3.102.254 3.12-1 .008-.685-.246-.981-.642-.744-.6.36-1.652-.676-1.66-1.635-.002-.22 1.116-.337 2.484-.26 2.173.125 2.514-.023 2.693-1.173.208-1.332-1.195-1.919-1.91-.798-.2.315-1.005.186-1.925-.307-1.377-.738-1.697-.735-2.48.027-.754.735-.77.957-.099 1.385.44.28.613.805.383 1.166-.23.36-.69.481-1.023.269-.333-.212-.84-.027-1.127.414-.362.554-.517.226-.506-1.064.012-1.38.335-1.96 1.243-2.234.948-.287 1.15-.692.892-1.785-.243-1.028-.092-1.41.555-1.402.49.006.896-.411.903-.93.012-.911-1.006-.91-3.607.007-1.368.481-2.406-.635-1.928-2.073.345-1.04.55-1.144.974-.499.433.66.718.566 1.478-.488.518-.717 1.305-1.3 1.75-1.294.443.006.81-.235.814-.536.006-.3-.72-.413-1.608-.25-3.243.593-5.115.344-6.263-.836-.725-.746-2.072-.953-6.194-.954-4.088 0-5.337-.191-5.578-.848-.62-1.682.86-3.134 3.463-3.4 4.176-.427 4.845-.695 5.06-2.024.114-.702-.011-1.22-.276-1.153-.832.213-3.108-.782-3.1-1.355.006-.3.601-.565 1.326-.588 7.037-.22 14.512-1.056 14.52-1.622.006-.367.72-.456 1.802-.224 1.113.239 2.45.056 3.526-.482 1.3-.65 2.022-.707 2.89-.226.92.508 1.16.457 1.17-.251.007-.49.94-1.264 2.074-1.72 1.134-.456 2.067-1.195 2.073-1.643.018-1.316-7.719-1.126-9.256.227-.773.68-1.32.827-1.566.418-.207-.346-.098-.625.243-.62.342.005.624-.256.629-.578.006-.322-.598-.594-1.34-.604-.74-.009-1.632-.312-1.982-.672-.463-.475-1.189-.462-2.665.05-2.772.96-4.903.306-5.364-1.645-.204-.863-.089-1.831.258-2.169 1.056-1.027.725-1.476-1.406-1.906-1.125-.227-2.04-.736-2.035-1.132.006-.517-1.842-.788-6.576-.963-8.797-.325-8.636-.304-8.625-1.108.006-.387-.712-.979-1.593-1.315l-1.602-.61 1.494-.027c.821-.015 1.776-.3 2.122-.637.345-.336 2.841-.704 5.546-.818 2.706-.114 6.107-.325 7.559-.47 1.451-.145 3.154-.259 3.783-.253.63.006 1.517-.29 1.972-.657.455-.368 1.22-.72 1.698-.784.479-.063 1.207-.562 1.618-1.108.41-.546 1.647-1.047 2.748-1.112 2.61-.156 2.545-.115 1.76-1.089-.551-.682-.431-.876.628-1.016 1.676-.223 2.018-1.234.83-2.456-.729-.749-2.155-.976-6.497-1.035-4.177-.058-5.781-.3-6.435-.971-.656-.675-1.724-.833-4.342-.643-2.133.155-3.469.024-3.464-.336.006-.324.206-.608.448-.63.242-.025 1.1-.125 1.907-.225.807-.1 2.984-.33 4.84-.513 1.854-.183 3.375-.576 3.38-.875.005-.3-.19-.559-.432-.578-.241-.018-1.886-.198-3.655-.4-1.77-.2-3.546-.388-3.949-.416-1.507-.105-.634-.796 1.908-1.509 1.446-.405 4.255-.803 6.242-.883 3.539-.143 5.903-1.026 3.315-1.238-.72-.059-2.492-.305-3.939-.546l-2.63-.44 2.352-.643c1.368-.374 2.357-1.003 2.364-1.503.006-.475-.383-.763-.87-.644-1.107.27-4.845.036-5.197-.326-.57-.587.61-.95 5.31-1.637 2.696-.394 4.969-.742 5.05-.772.08-.03.41-.052.733-.048.322.006.59-.347.596-.782.006-.588-1.594-.917-6.28-1.289-5.487-.435-6.932-.592-9.065-.985-.24-.044-.433-.454-.427-.91.006-.457-.316-.949-.717-1.093-.4-.146 1.312-.259 3.806-.252 4.898.012 5.974-.295 5.503-1.574-.279-.759 1.423-1.083 4.787-.911 1.23.062.833-.715-1.128-2.208-1.414-1.075-2.65-1.441-5.054-1.497-1.806-.042-3.274-.36-3.395-.734-.244-.759 1.346-1.276 5.12-1.667 1.453-.15 3.433-.399 4.402-.552.968-.154 2.37-.253 3.114-.22.744.032 2.398-.428 3.675-1.024 1.75-.817 2.32-.893 2.311-.31-.012.817.961.872 2.195.125.406-.246.991-.286 1.3-.09.31.197.905-.174 1.324-.825.43-.669 1.402-1.184 2.232-1.183.808 0 1.987-.378 2.618-.843.632-.464 1.635-.837 2.229-.829.594.006 1.735-.402 2.536-.911.802-.51 1.455-.75 1.452-.533-.002.217.58-.006 1.295-.491 1.15-.783 1.452-.783 2.605-.006.761.513 1.45.652 1.655.332.192-.302.734-.395 1.205-.208.47.188.859.05.864-.306.006-.357.536-.641 1.18-.632.644.009 1.175-.248 1.18-.57.005-.58-.734-.686-5.262-.748-5.278-.072-5.824.006-5.543.767.166.45-.203.786-.908.83-.814.05-1.182-.283-1.172-1.062.018-1.182-.375-1.335-3.058-1.195-1.243.065-1.609-.177-1.597-1.054.012-.892.542-1.202 2.447-1.43 1.338-.162 2.632-.608 2.877-.992.245-.385.736-.514 1.091-.288.355.226.65.173.653-.12.006-.291 1.126-.433 2.494-.314 1.367.119 3.773.332 5.345.472 2.325.209 2.911.07 3.137-.746.283-1.025 2.517-.908 2.503.132-.01.737 2.194.674 2.453-.07.284-.815 4.005-.854 4.488-.047.59.983 3.718.17 4.056-1.055.41-1.48 1.339-1.359 1.318.173-.015 1.045.125 1.127.882.517.736-.594 1.108-.533 2.046.34 1.104 1.027 1.146 1.025 1.17-.05.02-.935.114-.972.58-.23.37.592.562.643.574.155.01-.403.298-.728.64-.723.34.006.495.204.343.444-.585.922 3.907.784 4.972-.152.881-.776 1.243-.814 1.96-.202.483.413.882.546.885.295.003-.25.501.006 1.106.568.75.698 1.23.819 1.508.38.225-.353.912-.475 1.527-.27.776.258 1.12.091 1.13-.547.014-1.02 1.497-1.233 2.06-.294.198.33.588.463.868.295.28-.168.672-.034.87.297.199.332.977.457 1.73.28.753-.179 1.535-.048 1.738.291.24.399.866.435 1.775.104 1.025-.374 1.594-.279 2.102.351.481.596.92.685 1.413.286.394-.318.86-.431 1.035-.251.175.18 1.135.441 2.134.582 1.4.197 1.831.027 1.877-.741.033-.548.168-.732.299-.408.364.9 12.774.9 13.888 0 .612-.494 1.029-.53 1.279-.113.204.34.996.628 1.76.638.994.015 1.447-.354 1.594-1.296.2-1.286.349-1.31 6.77-1.055 4.22.167 7.676-.012 9.672-.504 1.709-.42 3.753-.706 4.543-.636.79.07 1.966-.352 2.613-.939.647-.586 1.456-1.041 1.798-1.011.341.03.288.183-.12.341-.406.158-.593.53-.415.827.48.803 2.01.676 2.025-.169.006-.448.92-.754 2.353-.788 1.288-.03 2.338.178 2.334.464-.006.596 4.975.276 6.04-.388.389-.243 1.235-.483 1.88-.534a43.06 43.06 0 0 0 2.347-.265c.912-.134 1.139.122 1.016 1.144-.116.97.149 1.32 1.007 1.332.64.009 1.16.28 1.156.602-.009.74 2.8.796 5.037.101 2.447-.76 5.999-1.238 9.005-1.212 2.142.021 2.827.31 3.856 1.638 1.22 1.573 1.272 1.585 2.075.477 1.238-1.71 4.172-1.393 4.67.505.368 1.395.391 1.403.464.153.042-.734.453-1.312.926-1.305.467.006 1.098-.419 1.401-.944.506-.875.68-.86 2.059.174.828.622 1.515 1.658 1.526 2.302.021 1.172.021 1.172.69.01.998-1.73 1.108-1.785 1.688-.84.447.73.537.704.556-.155.015-.677.481-1.019 1.37-1.006.741.009 1.64-.268 2-.617.398-.387 1.187-.446 2.023-.15.753.266 1.681.43 2.061.363.38-.066.8.48.934 1.216l.243 1.337.467-1.36c.351-1.025.587-1.167.952-.573.371.604.49.548.508-.237.018-.746.5-1.018 1.78-1 .966.014 1.753.28 1.749.595-.006.367.547.368 1.545.006.855-.312 1.667-.45 1.806-.308.139.143 1.026.05 1.972-.208 1.124-.306 1.716-.254 1.71.149-.005.363.384.3.945-.152.803-.648 1.059-.62 1.628.182.549.772.861.818 1.668.245.906-.644.914-.82.095-2.025-.93-1.366-.728-2.235.357-1.544.34.217.613.888.604 1.492-.02 1.439 1.372 1.846 6.082 1.781 2.132-.03 4.043.117 4.245.325.202.208.746.073 1.208-.3.535-.432.98-.467 1.227-.096.596.896 4.188 1.022 4.2.147.013-.805 4.314-1.285 5.388-.601 1.3.829 9.787 1.197 16.284.707 5.354-.404 5.818-.398 8.492.098.964.18 3.534.19 5.71.024 3.704-.28 3.96-.392 3.978-1.723.015-1.041.294-1.365 1.042-1.209.706.148.963.664.833 1.666l-.19 1.45 5.736-.107c3.155-.06 10.348-.05 15.985.02 6.198.08 10.542-.105 10.99-.466.516-.417.737-.4.73.057-.008.678 2.002.631 2.715-.063.223-.217.775-.08 1.227.306.561.479.949.508 1.224.093.256-.387 2.856-.498 7.135-.305 8.92.402 10.736.385 11.113-.1.174-.225 1.107-.398 2.074-.385.966.015 1.954-.237 2.195-.555.246-.326.436-.117.433.474-.006.76.239.922.874.578.483-.262 2.741-.193 5.018.153 3.42.52 4.234.484 4.686-.208.377-.58.546-.612.545-.107 0 .988 1.059.94 2.123-.095.53-.516 1.913-.81 3.548-.755 1.668.057 2.868-.205 3.18-.693.274-.431.655-.623.846-.427.192.197-.097.791-.641 1.32-.544.53-.893 1.018-.775 1.085.117.066.784.449 1.48.85.793.456 1.342.511 1.47.148.11-.32 1.458-.589 2.994-.599 2.55-.018 2.764-.125 2.47-1.265-.289-1.12-.243-1.148.45-.27.423.537 1.418 1.06 2.21 1.16 1.937.246 5.448-.549 5.992-1.356.276-.411.437-.273.434.372-.006 1.18.921 1.39 1.374.312.24-.573.313-.57.342.018.027.54.48.464 1.638-.27.88-.56 1.393-.688 1.138-.287-.285.45-.091.879.506 1.117.533.213 1.179.059 1.435-.343.343-.539.524-.55.685-.042.151.475 2.043.685 6.066.675 3.215-.006 7.098.043 8.627.113 2.211.102 2.783-.066 2.794-.821.012-.855.102-.859.901-.037.595.612 1.464.807 2.628.59 1.15-.213 1.736-.085 1.73.376-.006.413.435.564 1.076.37.598-.18 5.762-.368 11.475-.417 5.714-.049 10.545-.241 10.737-.427.192-.187.041-.344-.335-.349-.376-.006-.678-.405-.671-.888.006-.488.533-.871 1.183-.862.645.009 1.367-.047 1.605-.125.238-.077.515.321.616.885.13.728-.083.92-.733.66-.504-.201-.92-.074-.925.282-.006.357.518.656 1.162.665.644.009 1.167.32 1.162.692-.006.397.455.268 1.112-.31.705-.621 1.01-1.442.82-2.209-.215-.87-.067-1.14.516-.94.45.155.891.988.981 1.851.145 1.386.348 1.525 1.741 1.19.868-.21 2.104-.34 2.748-.291 1.114.085 1.12.05.121-.714-.665-.509-.82-.94-.421-1.179.346-.207.484-.987.307-1.733-.264-1.12-.048-1.404 1.246-1.633 2.06-.364 4.958.808 4.942 1.999-.009.778.577.92 3.357.814 10.537-.403 21.875-.301 22.175.2.186.31.723.422 1.193.25.47-.174.711-.092.537.181-.174.273.186.964.8 1.535 1.073.997 1.131.979 1.52-.487.387-1.456 2.045-2.177 2.027-.882-.006.341-.27.454-.59.25-.318-.203-.586.073-.593.615-.012.805.147.855.867.274.521-.42 1.505-.545 2.41-.305 1.105.294 1.742.121 2.301-.622.475-.63 1.583-1.035 2.868-1.047 1.151-.012 2.281-.203 2.51-.426.23-.223 1.319-.223 2.421 0 1.402.283 2.162.164 2.528-.397.288-.442.524-.52.524-.173 0 .405 1.412.582 3.956.497 2.176-.074 7.843-.106 12.595-.071 4.82.035 8.642-.175 8.646-.475.006-.592 2.373.622 3.045 1.564.242.338.432.177.445-.379.015-.678.37-.873 1.183-.65.638.177 1.013.553.832.836-.18.283.94.554 2.488.6 1.549.048 3.605.166 4.57.263.966.097 1.971.064 2.235-.074.263-.138 2.504-.17 4.98-.07 13.987.556 13.867.561 13.886-.645.006-.617.35-1.228.754-1.357.489-.155.297-.604-.57-1.332-2.105-1.77-.605-2.506 2.33-1.143 1.346.624 3.577 1.264 4.959 1.42 1.381.157 2.905.44 3.386.63.89.35 3.696.797 9.224 1.468 3.95.48 6.19.808 6.558.961.873.363 8.196.3 8.201-.07.012-.893 2.897-.365 3.46.633.539.955.585.947.616-.11.024-.874.192-.978.713-.443.496.51.89.528 1.463.066.574-.463.782-.451.775.045-.006.486.31.513 1.118.095.814-.422 1.566-.349 2.706.263 1.85.992 4.115.42 4.012-1.013-.038-.52.165-.941.452-.937.286.006.515.37.51.813-.007.444.38 1.14.857 1.548.6.512.871.538.877.084.006-.362.734-.63 1.62-.598l1.61.059-1.411.542c-1.745.67-1.23 1.373.677.922.767-.181 1.708-.99 2.09-1.799.797-1.688 1.895-1.938 1.877-.427-.01.734.485 1.05 1.742 1.111.965.048 1.758-.155 1.762-.449.006-.294 1.456-.436 3.226-.314 2.053.14 3.215.48 3.209.938-.012.813 1.793.354 2.489-.634.295-.418.438-.382.438.11 0 .403.658.741 1.463.752.805.012 1.467-.2 1.47-.467.007-.57 2.14-.475 2.72.123.602.618 3.012.522 3.431-.137.204-.319 2.595-.55 5.314-.512 4.302.058 4.95-.066 4.998-.957.049-.893.11-.879.484.114.29.771.567.92.86.46.237-.373 1.091-.615 1.896-.537 1.212.117 1.404.371 1.111 1.47-.401 1.514 1.033 1.927 1.848.533.409-.699.818-.698 2.773.006 1.26.455 2.512.696 2.779.535.267-.16 2.396-.36 4.73-.443 2.335-.084 5.485-.383 7-.664 1.743-.323 2.958-.302 3.308.059.31.318 1.164.376 1.937.13.76-.24 3.095-.357 5.188-.257 2.093.1 5.782.164 8.199.144 2.416-.018 6.038-.046 8.048-.058 3.196-.018 3.615-.151 3.343-1.052-.23-.76.015-1.024.939-1.012.965.015 1.165.272.879 1.134-.205.615-.1 1.29.232 1.503.333.212.615-.091.628-.675.015-.68.175-.814.446-.374.233.377 1.082.675 1.886.664.805-.012 1.964.204 2.577.48.792.357.995.303.7-.189-.244-.408-.04-.715.5-.751a28.451 28.451 0 0 0 1.648-.162c.404-.056.995.05 1.315.234.761.438 3.214.524 3.22.113.01-.728 14.983.015 16.856.837 1.658.727 1.991.726 2.458-.006.47-.738.581-.732.865.04.48 1.305 3.208 1.428 3.284.148.037-.617.173-.726.347-.278.157.407.53.595.826.417.297-.179.536-.043.532.302-.01.656 4.107.519 6.014-.2.57-.215 1.425-.061 1.899.343.507.433.865.489.87.136.005-.33.797-.483 1.761-.34.965.142 2.587.378 3.605.525 1.018.147 2.47.041 3.225-.234.756-.276 1.371-.3 1.368-.055-.01.69 2.262.73 2.697.048.256-.402.533-.36.823.123.27.45.745.542 1.241.24 1.253-.76 12.812-.609 12.813.169 0 .428.156.41.459-.05.252-.386 1.24-.62 2.194-.522.955.1 2.632-.044 3.728-.317 1.48-.369 2.116-.294 2.476.292.278.453.493.513.503.141.01-.356.743-.667 1.63-.69 3.336-.087 4.561-.296 5.177-.883.354-.338 2.236-.496 4.254-.357 3.507.24 3.61.293 3.332 1.717-.238 1.216-.094 1.422.832 1.193.616-.152 1.239.027 1.385.398.183.464.283.446.322-.058.036-.475 1.033-.722 2.838-.703 2.012.021 2.541-.131 1.911-.55-.523-.349-.592-.58-.173-.58.384 0 .844.245 1.023.544.18.299 1.774.47 3.544.379 1.77-.09 3.215.083 3.211.384-.006.302.52.556 1.164.564.644.01 1.175-.247 1.18-.57.005-.321.93-.572 2.057-.557 1.128.015 2.047.261 2.043.546-.01.719 2.865 1.242 3.277.596.184-.29.828-.362 1.43-.162.602.2 1.634.085 2.291-.255.924-.478 1.527-.396 2.648.36 1.314.887 1.485.893 1.818.06.243-.609.923-.847 2.015-.704 1.199.156 1.569-.006 1.355-.585-.494-1.34 5.359-1.14 6.69.228 1.007 1.035 1.895 1.09 1.92.119.012-.453.18-.507.441-.14.233.325 1.674.643 3.203.706 2.206.092 2.788-.082 2.813-.84.027-.85.116-.84.795.08.851 1.154 3.33 1.393 5.074.489.628-.325 1.139-.37 1.135-.101-.006.446 6.47.577 19.198.387 4.176-.062 4.984-.244 5.784-1.301l.93-1.23-.405 1.313c-.242.782-.152 1.316.22 1.321.344.006.65-.452.68-1.016.049-.893.105-.904.441-.082.396.97 2.434 1.12 4.348.32.693-.29 1.03-.17 1.029.365 0 .614.127.597.563-.073.43-.66 1.47-.81 4.328-.623 2.069.135 3.918 0 4.11-.301.19-.3 1.737-.43 3.437-.287 1.699.143 4.54.265 6.31.272 24.385.093 29.497.189 30.069.563.433.284.307.438-.354.435-.564 0-1.028.211-1.032.476-.006.264 1.31.559 2.92.654 2.34.14 2.929-.012 2.939-.756.009-.773.224-.728 1.263.267.995.953 1.978 1.19 4.817 1.165 1.961-.018 4.275-.37 5.141-.785 1.235-.59 1.63-.596 1.828-.027.2.575.516.576 1.51.006 1.01-.579 1.258-.575 1.257.018 0 .537.117.556.438.067.702-1.071 1.083-1.117 2.094-.254.812.692 1.006.674 1.326-.129.48-1.203 3.183-1.222 3.166-.02-.018 1.287.97 1.084 1.346-.278.352-1.272 1.754-1.05 3.301.523.62.63 1.585.752 3.801.478 5.44-.673 6.134-.65 6.455.222.241.654.995.773 3.312.523 1.909-.206 3.291-.076 3.798.357.439.374.801.44.805.148.01-.643 3.34-.922 4.23-.355.346.221 1.652.508 2.9.638 1.637.17 2.371-.015 2.628-.655.314-.788.436-.78 1.04.072.405.57 1.51.973 2.7.987 3 .034 3.737-.234 4.174-1.52.37-1.087.4-1.077.438.152.047 1.536.917 1.743 1.692.402.448-.776.732-.807 1.702-.182.943.607 1.518.599 3.019-.041 1.02-.435 1.858-1.094 1.863-1.464.006-.37.41-.82.9-1 .69-.254.808-.018.524 1.052-.202.759-.084 1.56.261 1.78.37.236.634-.081.644-.772.009-.644.32-1.353.693-1.576.476-.286.555.052.266 1.138-.357 1.345-.246 1.521.858 1.369.697-.097 1.612-.635 2.034-1.195.515-.684 1.164-.887 1.976-.617.724.24 1.212.143 1.218-.244.006-.466.35-.457 1.234.032.886.49 1.404.502 1.873.046.357-.347 1.189-.593 1.849-.547.966.068 1.002.134.185.336-.806.2-.87.41-.31 1.026.9.989 2.178.534 2.196-.78.006-.557.403-1.006.88-1 .613.006.76.408.503 1.374-.502 1.887.238 1.721 1.029-.23l.65-1.602.847 1.287c.842 1.278.856 1.279 2.011.155 1.065-1.037 1.272-1.055 2.434-.217 1.455 1.049 6.908 1.237 13.902.48 8.567-.929 9.7-.956 11.847-.287 1.687.526 2.376.51 3.1-.076.672-.541 1.11-.572 1.56-.108.452.464.943.455 1.751-.03.885-.532 1.226-.505 1.607.126.292.484 1.67.85 3.477.927 1.866.078 3.1.416 3.279.898.157.425.599.585.982.355.384-.23 1.43-.43 2.327-.444 1.234-.018 1.707.302 1.95 1.329.25 1.062.602 1.283 1.623 1.023 1.168-.299 1.15-.246-.173.507-1.3.74-1.354.89-.456 1.253 1.463.591 2.867-.086 2.68-1.294-.093-.606.205-1.03.72-1.023.483.006.874.32.869.695-.006.376.185.884.423 1.129.239.245.439.064.445-.403.006-.479.641-.892 1.456-.948 1.063-.073 1.353.129 1.099.766-.19.476-.076.869.253.873.33.006.703-.289.83-.652.16-.46.488-.41 1.072.161 1.553 1.518 7.069.842 9.248-1.133.74-.67 1.97-1.323 2.736-1.45 1.154-.194 1.337-.034 1.07.935-.225.813-.035 1.173.623 1.182.52.006.944.245.94.53-.006.527 7.323.414 8.225-.126.272-.163.73.137 1.016.666.436.805.576.825.857.122.26-.652 1-.746 3.302-.419 1.698.242 3.047.188 3.157-.126.112-.322 1.463-.356 3.275-.081 2.266.343 3 .68 2.765 1.267-.236.591.135.753 1.428.62.962-.098 1.898.07 2.08.376.184.305.695.421 1.138.258.443-.163.967-.024 1.166.307.404.675 3.87.562 4.394-.142.185-.25 1.44-.501 2.787-.56 1.347-.06 2.454-.27 2.458-.47.012-.475 6.041-1.576 6.618-1.209.82.523-.271 1.436-1.547 1.295-1.376-.152-2.4.145-5.972 1.729-2.061.914-4.899 1.623-7.174 1.791-.389.03-.589.25-.444.491.824 1.375-1.359 2.674-5.146 3.061-.215.021-.592.235-.837.474-.244.238-1.333.42-2.418.406-1.79-.024-1.916.081-1.362 1.153.724 1.398 1.474 1.475 3.656.374 1.176-.593 1.622-.626 1.622-.12 0 .422.22.359.559-.162.365-.56 1.282-.786 2.636-.651 1.142.114 2.08-.05 2.084-.366.012-.8 3.374-1.84 4.497-1.39.715.285.541.528-.763 1.067l-1.69.697 1.457.63 1.455.628-1.909.386c-1.378.278-1.913.71-1.925 1.555-.012.857-.209 1.01-.74.575-.398-.327-1.254-.407-1.901-.177-.648.23-1.724.206-2.391-.053-.668-.26-1.583-.25-2.034.018-.89.533-.423.834 2.064 1.327.643.127 1.111.506 1.042.843-.07.336.52.97 1.312 1.407 1.712.947 1.554 1.867-.41 2.387-1.356.36-1.34.385.328.528 1.054.09 1.345.252.727.404-.566.14-1.032.53-1.037.865-.006.336-.533.466-1.175.289-.642-.177-1.17-.112-1.174.146-.006.257-.417.619-.92.804-.569.21-.762.098-.512-.294.553-.868-3.586-.342-4.758.605-1.4 1.129-.613 1.294 1.713.36 1.84-.74 2.124-.74 2.114-.006-.006.514.564.856 1.452.868.806.012 1.46.297 1.456.635-.006.398.333.43.96.09 1.289-.698 3.137-.148 2.751.818-.235.588.286.704 2.23.497 2.479-.264 2.507-.249 1.206.685-.732.526-1.336 1.303-1.342 1.726-.006.451-1.022.918-2.449 1.127-3.19.465-3.721.835-2.509 1.748.877.659.591.873-2.325 1.747-4.666 1.398-5.435 2.483-1.531 2.162 2.85-.235 2.977-.185 2.583 1-.492 1.48-.108 1.53 3.19.417 3.106-1.048 3.576-1.048 3.157 0-.384.963-5.025 3.196-6.597 3.175-.586-.006-1.582.375-2.214.851-1.075.811-1.045.831.47.314 2.07-.707 2.196.354.147 1.254-.8.351-1.305.889-1.122 1.194.183.305-.289.477-1.049.38-.76-.095-2.257.019-3.328.252-1.8.394-1.868.487-.895 1.246.68.53.78.822.284.828-.422.006-.642.217-.489.473.154.255 1.946.42 3.984.364 2.038-.055 4.628-.12 5.755-.144 1.128-.024 2.39-.316 2.806-.648 1.142-.914 1.495-.114.414.937-.864.84-.708.912 1.814.827 3.048-.102 4.25 1.09 1.706 1.692-.831.197-1.516.724-1.522 1.172-.006.449-.473.817-1.037.82-.974.005-.974.034 0 .616.772.464.879.871.438 1.669-.321.58-.399 1.245-.172 1.478.227.233-.07.766-.658 1.184-.674.479-.842.904-.454 1.152.338.215.609.886.6 1.489-.015 1.078-1.636 1.946-3.688 1.976-1.55.02-1.528 1.151.027 1.393.86.134 1.244.502 1.045 1-.205.514.287.93 1.408 1.193 2.188.512 1.738 1.368-.528 1.003-1.178-.189-1.81.012-2.067.656-.204.51-.115.93.197.935.312.006.563.287.559.628-.006.341-.27.454-.59.25-.32-.203-.584-.1-.589.23-.012.913 2.17 1.967 2.618 1.264.487-.764 2.061-.73 2.05.045-.005.333-.47.744-1.037.915-2.6.783-5.448 2.13-5.454 2.582-.006.273-.518.49-1.143.48-.625-.008-1.295.233-1.488.535-.361.568 1.577.4 2.623-.227.323-.194.584-.09.58.233-.006.322-.32.772-.7 1-.736.441 1.561 1.692 2.795 1.521.367-.05.815.31.996.802.208.565 1.088.904 2.397.922 1.448.02 2.065.292 2.056.906-.006.484-.272.875-.59.871-.319-.006-.524.544-.457 1.22.103 1.03-.247 1.257-2.174 1.415-1.263.103-2.55.434-2.859.734-.778.757-.018 1.827 1.31 1.846 2.022.027 1.835 1.18-.397 2.457l-2.207 1.261 1.907.522c1.319.361 1.802.782 1.57 1.366-.338.844 1.853 1.18 6.213.952.887-.046 1.61.086 1.607.295-.009.764-1.686 1.982-3.23 2.347-.873.206-1.724.715-1.89 1.13-.166.416-1.313.913-2.55 1.104-1.236.192-2.738.73-3.338 1.197-.998.776-.88.835 1.386.695 1.606-.1 2.273.044 1.898.409-.923.898-.686 1.498.598 1.516.655.009 1.344.436 1.533.948.19.513.843 1.125 1.454 1.36.79.306-.21.73-3.47 1.474-2.52.575-5.286 1.515-6.15 2.09-.862.574-1.845 1.04-2.183 1.036-1.46-.018-3.617 1.398-3.63 2.387-.006.593-.395 1.072-.86 1.066-1.279-.018-1.755 1.157-.847 2.091.854.877 3.334 1.485 7.204 1.764 1.287.093 2.603.253 2.924.355.32.102 1.768.262 3.217.354 1.448.092 3.094.21 3.657.263 1.766.163 1.241 2.81-.787 3.97-.974.558-1.775 1.353-1.781 1.766-.006.414-.363.748-.795.742-.668-.01-1.187.698-2.663 3.624-.121.24.23.443.779.45.843.012.877.156.22.927-.645.756-.636 1.005.055 1.456.69.45.661.543-.164.539-1.835-.01-3.937 1.274-4.133 2.522-.16 1.028-.832 1.338-4.01 1.851-2.098.34-3.948.675-4.11.746-.162.07-.491.094-.733.053-.24-.041-.446.254-.457.656-.015.54-.15.52-.511-.069-.3-.487-.637-.575-.86-.224-.683 1.071 1.38 2.083 4.45 2.182 1.875.061 3.299.422 3.69.936.369.485 1.062.679 1.653.461.672-.247.932-.127.767.355-.138.401-.956.803-1.819.893-.862.09-1.571.41-1.575.71-.006.301-.205.487-.445.414-.757-.231-4.263 1.155-4.27 1.689-.006.28-2.299.784-5.1 1.12-2.8.336-5.32.832-5.598 1.103-.788.767.093 2.455 1.29 2.471.59.006 1.224.265 1.407.571.184.306 1.51.75 2.95.986 2.219.364 2.613.632 2.598 1.764-.021 1.42-1.017 2.032-3.262 2.002-.76-.01-1.549.242-1.752.561-.203.32-.853.574-1.444.566-1.12-.015-2.278 1.864-1.348 2.188.87.303.033 2.983-1.014 3.246-.531.134-.123.285.907.336l1.872.094-.85 1.958-.85 1.959 2.32-.165c2.424-.171 3.255.849 1.12 1.376-1.03.254-.92.437.857 1.421 1.122.621 2.816 1.14 3.764 1.153.949.012 1.87.265 2.046.56.176.294-.175.398-.781.23-.607-.167-1.284-.02-1.505.327-.221.347-.189.653.071.68 3.85.392 8.8 1.698 6.712 1.77-.422.015-.6.306-.395.647.254.425-1.012.475-4.03.16-7.328-.765-8.619.924-1.412 1.848 4.732.606 3.979 1.707-1.266 1.85-2.469.067-4.205.371-4.21.737-.006.343.364.486.82.318.454-.167 1.272.201 1.816.82 1.203 1.365 4.32 2.501 6.965 2.537 1.43.018 2.032.328 2.233 1.144.232.939-.048 1.112-1.758 1.089-2.122-.03-4.31.802-4.322 1.643-.006.269 1.304.682 2.906.917 2.02.296 3.094.777 3.506 1.573.624 1.206.403 1.325-3.543 1.905-1.458.215-1.459.22-.163.668 1.721.596.994 1.683-.806 1.205-.825-.22-1.399-.113-1.404.26-.006.348-.27.465-.59.262-.319-.204-.584-.075-.589.287-.006.361-.576.567-1.27.456-.693-.11-1.377.128-1.52.528-.259.726.217.788 8.327 1.076 2.546.09 2.911.255 2.807 1.265-.067.639.187 1.375.563 1.636 1.156.802-3.096 3.903-5.31 3.872-1.773-.024-3.068.814-2.369 1.533.172.176 1.805.447 3.63.602 3.84.327 4.428.589 3.958 1.765-.243.608.2.974 1.525 1.257 1.964.421 1.918.219.937 4.157-.3 1.204-.551 1.258-7.174 1.55-3.535.157-6.682.522-6.992.813-.356.333-.359.547-.006.58.306.03 2.38.208 4.609.396 3.998.336 7.343 1.554 7.328 2.667-.006.314 1.046.585 2.335.602 2.549.035 3.121.895 1.004 1.508-.727.211-1.723.724-2.212 1.14-.489.415-1.153.77-1.475.788-3.144.177-6.375.838-6.983 1.428-.41.399-1.255.848-1.878.998-1.084.26-1.082.276.04.356.646.046 2.033-.15 3.081-.434 1.583-.431 1.905-.36 1.894.416-.006.514-.17.772-.365.573-.193-.199-1.38.268-2.638 1.038s-2.77 1.393-3.36 1.385c-.59-.006-1.859.806-2.818 1.81-.96 1.002-1.432 1.65-1.049 1.44.383-.211.86-.11 1.06.223.216.36 1.76.51 3.786.368 2.757-.193 3.488-.059 3.764.691.189.512.677.808 1.085.658.408-.15 1.789-.057 3.068.207l2.325.48-2.067.039c-1.137.02-2.7.47-3.475.997l-1.41.958 1.395.538c1.392.536 1.39.542-.965 2.502-2.521 2.098-1.912 1.994-12.705 2.164-2.79.044-5.362.255-5.718.468-.355.213-.642.1-.637-.251.006-.44-1.863-.566-5.999-.406-3.304.127-8.841.257-12.305.288-3.464.031-6.3.23-6.303.441 0 .212-.539.237-1.191.057-.66-.182-1.646.077-2.218.58-.572.504-1.348.708-1.741.457-.793-.505-8.162-.513-14.457-.015-2.275.18-5.323.41-6.774.51-1.451.1-3.497.325-4.546.499-1.05.173-1.905.076-1.901-.216.012-.904-1.91-1.352-2.414-.563-.364.571-3.823.713-14.823.605-8.959-.088-14.635.084-15.111.457-.42.33-2.015.842-3.545 1.141-2.736.533-2.777.52-2.423-.815.346-1.302.208-1.367-3.353-1.584-2.043-.125-5.3.078-7.238.45-1.938.373-4.55.8-5.804.95-1.254.15-3.897.689-5.874 1.196-2.235.574-5.31.846-8.13.72-9.277-.414-12.557-.493-17.129-.41a384.27 384.27 0 0 1-7.275.066c-1.423-.009-3.058.227-3.634.525-1.058.548-4.03-.404-4.018-1.287.006-.233-.651-.559-1.454-.724-.804-.165-1.464-.073-1.468.205-.006.278-.286.5-.627.496-.34-.006-.454-.27-.25-.59.203-.319.075-.584-.285-.589-.36-.006-.47-.299-.245-.652.252-.394 1.263-.495 2.61-.26 1.409.245 2.995.063 4.406-.503 2.047-.823 2.176-.816 1.81.098-.318.797-.139.92.938.648.733-.186 2.057-.331 2.942-.324.886.006 1.615-.284 1.62-.648.006-.435-.797-.566-2.338-.381-1.521.183-2.214.073-1.969-.312.43-.674-3.47-.417-5.303.35-.86.36-1.011.29-.636-.3.376-.59.16-.686-.924-.412-.778.196-2.813.342-4.523.323-2.123-.024-2.985.173-2.718.62.27.448-.041.512-.993.2-.762-.248-1.457-.64-1.545-.871-.206-.545-5.137.17-8.425 1.222-5.165 1.652-5.993 1.655-7.178.03-.76-1.045-1.642-1.5-2.937-1.518-1.018-.015-2.108-.29-2.423-.613-.37-.38-1.258-.401-2.51-.061-1.358.37-2.292.31-3.125-.195-.935-.568-1.247-.567-1.463.006-.151.4-.664.723-1.14.716-.475-.006-.697-.273-.494-.592.204-.32-.069-.587-.605-.594-.627-.01-.86.302-.651.87.274.745-.508.871-5.005.81-4.17-.058-5.73.16-7.17.999-1.73 1.007-2.936 1.096-8.719.644-1.925-.15-2.157-1.28-.274-1.337.87-.027.467-.32-1.188-.866-2.48-.818-4.21-.684-4.223.326-.006.288-.468.496-1.031.463-.612-.036-.728-.175-.288-.346 1.606-.622.61-1.36-1.885-1.395-1.713-.024-2.642.22-2.654.696-.012.492-.158.524-.441.098-.631-.95-2.374-1.482-2.778-.849-.194.306.255.59.998.633.858.05.509.263-.957.585-1.508.332-2.512.298-2.898-.098-.401-.413-.178-.601.699-.59.708.01 1.291-.229 1.295-.53.006-.61-1.365-.693-5.158-.313-2.096.21-2.415.397-1.856 1.09.573.708.078.787-3.27.52-2.42-.194-4.426-.055-5.193.358-1.687.91-4.568.882-4.2-.04.156-.39.034-.868-.272-1.062-.305-.195-.559-.083-.563.248-.006.33-.402.444-.882.252-.578-.23-.893.018-.93.738-.052 1.002-.094.995-.544-.091-.267-.648-.51-.88-.537-.514-.027.366-.948 1.076-2.046 1.579-1.725.79-4.096.847-17.568.425-8.566-.269-16.238-.665-17.05-.88-.874-.233-1.855-.088-2.403.355-.729.588-1.019.592-1.362.018-.34-.567-.588-.552-1.116.068-.456.534-1.599.714-3.47.548-2.53-.225-9.683-.358-11.871-.22-.484.03-2.781-.012-5.106-.095-3.493-.124-4.166-.302-3.877-1.024.192-.48.124-.89-.152-.91-8.132-.574-10.357-.74-12.871-.954-1.653-.14-3.297-.44-3.652-.667-.355-.226-.866-.28-1.136-.118-.632.38-7.865.4-11.083.031-1.367-.156-2.488-.058-2.492.22-.006.276.19.526.431.554.242.027.964.182 1.607.344.642.161 2.4.293 3.91.292 1.507 0 2.88.23 3.05.514.517.864-8.32.888-21.91.06-2.735-.166-8.036-.447-11.778-.624-3.742-.177-7.098-.51-7.458-.739-.36-.23-.659-.138-.663.203-.006.341-.551.613-1.215.604-.663-.01-1.039-.278-.835-.597.203-.32-.042-.587-.544-.594-.502-.006-.915.19-.919.436-.006.246-3.894.435-8.645.419-9.986-.033-31.677.286-38.522.567-5.325.219-4.873.212-11.132.161-2.577-.02-6.004.024-7.616.101-1.612.077-3.58-.115-4.375-.428-.795-.312-1.522-.345-1.617-.073-.095.272-1.814.313-3.82.093-2.008-.222-4.574-.26-5.704-.088-1.13.173-4.097.272-6.593.22-2.496-.054-4.54.045-4.542.218 0 .173-2.311.31-5.13.304-16.418-.032-37.845.287-40.52.605-2.225.264-3.232.16-3.547-.367-.314-.524-.76-.572-1.549-.167-.955.491-7.08.688-17.355.558-1.526-.021-2.917.187-3.091.46-.174.273-1.035.35-1.913.17-3.394-.695-16.87-.406-19.326.414-.405.134-.732-.021-.728-.343.006-.36-.391-.4-1.023-.1-.568.267-2.086.429-3.374.359-1.287-.07-2.607.056-2.932.28-.325.225-5.467.361-11.427.302-5.959-.06-12.246-.018-13.972.095-1.725.11-4.325-.069-5.778-.4-1.692-.385-2.777-.4-3.016-.043-.206.308-4.196.557-8.868.555-4.671-.002-12.184.07-16.696.16-4.512.09-8.598.162-9.081.158-3.17-.024-16.24-.183-16.838-.204-.403-.015-1.627-.073-2.72-.131-1.094-.058-2.547.063-3.23.27-.952.287-1.351.062-1.717-.969-.466-1.314-.49-1.318-1.119-.18-.681 1.233-3.442 1.487-4.143.382-.21-.33-1.103-.787-1.986-1.016-1.35-.35-1.607-.23-1.621.766-.018 1.244-1.437 1.605-2.082.528-.208-.347-.815-.456-1.35-.244-1.379.55-9.784.689-8.88.147 1.103-.661.217-1.697-1.16-1.357-.934.23-1.047.468-.53 1.11.544.672.159.822-2.195.85-5.094.063-5.525.132-6.063.974-.603.944-2.388 1.351-2.377.542.006-.293.418-.528.92-.521.503.006.754-.253.56-.578-.63-1.052-2.722-.68-3.06.544-.266.963-.815 1.16-3.148 1.128-1.554-.021-2.984-.305-3.179-.63-.218-.363.783-.574 2.609-.55 1.636.022 2.967-.228 2.971-.56.006-.369-1.543-.56-3.996-.494-3.653.098-3.986.21-3.785 1.281.22 1.175.22 1.175-.476-.006-.383-.65-.766-1.269-.85-1.377-.085-.107-.686.08-1.337.417-.88.455-1.267.424-1.513-.12-.262-.58-.403-.581-.683-.001-.194.402-.559.6-.811.439-.74-.472-23.534-.815-25.87-.39-1.292.236-2.28.149-2.5-.218-.24-.4-1.118-.302-2.56.286-2.251.916-8.926.986-9.495.1-.165-.257-.827-.413-1.472-.349-4.478.447-7.644.87-7.825 1.047-.117.114-1.118-.319-2.225-.96-1.297-.753-2.331-.996-2.906-.684-.492.266-2.097.284-3.567.04-1.471-.244-3.757-.359-5.08-.256-1.323.103-3.382.215-4.576.249-1.194.034-2.04.28-1.88.546.159.267-.155.307-.699.09-.622-.249-1.288.002-1.797.68-.59.784-.806.847-.798.23.006-.533-.637-.876-1.745-.93-.965-.048-1.763.205-1.773.561-.009.356-.245.278-.522-.174-.5-.813-5.329-1.217-10.876-.91-1.29.07-2.806.113-3.37.094-.563-.02-1.88-.043-2.928-.055-1.046-.012-6.499-.09-12.115-.173-5.617-.084-10.364.058-10.548.315-.456.634-4.809.448-5.891-.251-1.152-.745-12.175-1.116-12.615-.426-.188.296-1.228.526-2.31.511-3.968-.054-5.127 1.281-1.948 2.247l1.896.575-2.637.092c-1.45.05-3.23.145-3.957.211-.946.087-1.315-.188-1.304-.97.006-.601.278-1.089.6-1.084a.588.588 0 0 1 .578.594c-.006.322.387.59.87.597 1.026.015 1.18-.907.252-1.499-.353-.225-1.553-.544-2.667-.71-1.686-.25-2.082-.097-2.362.919-.34 1.232-1.379 1.704-1.364.62.01-.725-1.576-.802-1.854-.09-.113.293-1.478.303-3.124.022-3.374-.575-3.795-.448-3.43 1.03.216.876-.329 1.253-2.864 1.985-1.723.497-5.044 1.004-7.382 1.126-3.908.205-4.248.132-4.234-.91.009-.624-.248-1.137-.57-1.142-.322-.006-.593.503-.601 1.128-.021 1.65-4.52 2.207-7.095.878-2.298-1.186-2.484-1.196-2.083-.109.52 1.412-.355 1.45-3.964.177-1.88-.663-5.628-1.392-8.33-1.62-2.702-.228-5.048-.641-5.214-.918-.367-.611-2.587.454-2.598 1.247-.006.31.52.572 1.164.58.644.01 1.167.305 1.162.657-.006.425-.844.496-2.492.21-1.366-.236-3.669-.49-5.118-.564-1.448-.074-2.833-.4-3.077-.726-.273-.365-.852-.12-1.508.639-.902 1.043-1.22 1.114-2.08.466-.705-.53-2.486-.707-5.815-.577-10.659.416-13.765.505-17.616.508-3.508.002-3.933.117-3.308.892.852 1.055.067 1.063-5.859.054z"/></svg>